<svg width="103" height="26" viewBox="0 0 103 26" fill="none" xmlns="http://www.w3.org/2000/svg">
<g clip-path="url(#clip0_302_132)">
<path d="M1.99751 20V1.81818H8.47834C9.89287 1.81818 11.0647 2.07564 11.994 2.59055C12.9232 3.10547 13.6186 3.80978 14.0803 4.70348C14.5419 5.59126 14.7727 6.5915 14.7727 7.70419C14.7727 8.8228 14.5389 9.82895 14.0714 10.7227C13.6097 11.6104 12.9113 12.3147 11.9762 12.8356C11.047 13.3505 9.87808 13.608 8.46946 13.608H4.01278V11.282H8.22088C9.11458 11.282 9.83961 11.1281 10.396 10.8203C10.9523 10.5066 11.3607 10.0805 11.6211 9.5419C11.8815 9.00331 12.0117 8.39074 12.0117 7.70419C12.0117 7.01764 11.8815 6.40803 11.6211 5.87535C11.3607 5.34268 10.9493 4.92543 10.3871 4.62358C9.83073 4.32173 9.09683 4.17081 8.18537 4.17081H4.74077V20H1.99751ZM19.622 20.3018C18.7579 20.3018 17.9766 20.142 17.2782 19.8224C16.5798 19.4969 16.0265 19.0264 15.6181 18.4109C15.2156 17.7953 15.0144 17.0407 15.0144 16.147C15.0144 15.3776 15.1623 14.7443 15.4583 14.2472C15.7542 13.75 16.1537 13.3564 16.6568 13.0664C17.1599 12.7764 17.7221 12.5574 18.3436 12.4094C18.965 12.2615 19.5983 12.149 20.2434 12.0721C21.0602 11.9774 21.7231 11.9004 22.2321 11.8413C22.7411 11.7762 23.111 11.6726 23.3418 11.5305C23.5726 11.3885 23.688 11.1577 23.688 10.8381V10.7759C23.688 10.0006 23.469 9.39986 23.0311 8.97372C22.599 8.54758 21.9539 8.33452 21.0957 8.33452C20.202 8.33452 19.4977 8.53279 18.9828 8.92933C18.4738 9.31996 18.1216 9.75497 17.9263 10.2344L15.4316 9.66619C15.7276 8.83759 16.1596 8.1688 16.7278 7.6598C17.3019 7.14489 17.9618 6.77202 18.7076 6.54119C19.4533 6.30445 20.2375 6.18608 21.0602 6.18608C21.6047 6.18608 22.1818 6.25118 22.7914 6.38139C23.4069 6.50568 23.981 6.73651 24.5137 7.07386C25.0523 7.41122 25.4932 7.89358 25.8365 8.52095C26.1797 9.1424 26.3514 9.95028 26.3514 10.9446V20H23.7591V18.1357H23.6525C23.4809 18.4789 23.2234 18.8163 22.8801 19.1477C22.5369 19.4792 22.0959 19.7544 21.5574 19.9734C21.0188 20.1924 20.3736 20.3018 19.622 20.3018ZM20.199 18.1712C20.9329 18.1712 21.5603 18.0262 22.0811 17.7362C22.6079 17.4461 23.0074 17.0674 23.2797 16.5998C23.5578 16.1263 23.6969 15.6203 23.6969 15.0817V13.3239C23.6022 13.4186 23.4187 13.5073 23.1465 13.5902C22.8801 13.6671 22.5753 13.7352 22.2321 13.7944C21.8888 13.8477 21.5544 13.898 21.2289 13.9453C20.9034 13.9867 20.6311 14.0223 20.4121 14.0518C19.8972 14.117 19.4267 14.2264 19.0005 14.3803C18.5803 14.5342 18.243 14.7562 17.9885 15.0462C17.7399 15.3303 17.6156 15.709 17.6156 16.1825C17.6156 16.8395 17.8583 17.3366 18.3436 17.674C18.8289 18.0054 19.4474 18.1712 20.199 18.1712ZM27.887 6.36364H30.5415V20.8878C30.5415 21.7992 30.3757 22.5687 30.0443 23.196C29.7188 23.8234 29.2335 24.2998 28.5883 24.6254C27.9491 24.9509 27.159 25.1136 26.218 25.1136C26.1233 25.1136 26.0345 25.1136 25.9516 25.1136C25.8628 25.1136 25.7711 25.1107 25.6764 25.1048V22.8232C25.7593 22.8232 25.8332 22.8232 25.8983 22.8232C25.9575 22.8232 26.0256 22.8232 26.1025 22.8232C26.7299 22.8232 27.1827 22.6545 27.4608 22.3171C27.7449 21.9857 27.887 21.5033 27.887 20.87V6.36364ZM29.2009 4.25959C28.7393 4.25959 28.3427 4.1057 28.0113 3.79794C27.6858 3.48426 27.523 3.11139 27.523 2.67933C27.523 2.24136 27.6858 1.86849 28.0113 1.56072C28.3427 1.24704 28.7393 1.0902 29.2009 1.0902C29.6626 1.0902 30.0561 1.24704 30.3817 1.56072C30.7131 1.86849 30.8788 2.24136 30.8788 2.67933C30.8788 3.11139 30.7131 3.48426 30.3817 3.79794C30.0561 4.1057 29.6626 4.25959 29.2009 4.25959ZM36.081 20.3018C35.2169 20.3018 34.4356 20.142 33.7372 19.8224C33.0388 19.4969 32.4854 19.0264 32.0771 18.4109C31.6746 17.7953 31.4734 17.0407 31.4734 16.147C31.4734 15.3776 31.6213 14.7443 31.9173 14.2472C32.2132 13.75 32.6127 13.3564 33.1158 13.0664C33.6188 12.7764 34.1811 12.5574 34.8026 12.4094C35.424 12.2615 36.0573 12.149 36.7024 12.0721C37.5192 11.9774 38.1821 11.9004 38.6911 11.8413C39.2 11.7762 39.57 11.6726 39.8008 11.5305C40.0316 11.3885 40.147 11.1577 40.147 10.8381V10.7759C40.147 10.0006 39.928 9.39986 39.4901 8.97372C39.058 8.54758 38.4129 8.33452 37.5547 8.33452C36.661 8.33452 35.9567 8.53279 35.4418 8.92933C34.9328 9.31996 34.5806 9.75497 34.3853 10.2344L31.8906 9.66619C32.1866 8.83759 32.6186 8.1688 33.1868 7.6598C33.7609 7.14489 34.4208 6.77202 35.1665 6.54119C35.9123 6.30445 36.6965 6.18608 37.5192 6.18608C38.0637 6.18608 38.6407 6.25118 39.2504 6.38139C39.8659 6.50568 40.44 6.73651 40.9727 7.07386C41.5112 7.41122 41.9522 7.89358 42.2955 8.52095C42.6387 9.1424 42.8104 9.95028 42.8104 10.9446V20H40.218V18.1357H40.1115C39.9399 18.4789 39.6824 18.8163 39.3391 19.1477C38.9959 19.4792 38.5549 19.7544 38.0163 19.9734C37.4777 20.1924 36.8326 20.3018 36.081 20.3018ZM36.658 18.1712C37.3919 18.1712 38.0193 18.0262 38.5401 17.7362C39.0669 17.4461 39.4664 17.0674 39.7386 16.5998C40.0168 16.1263 40.1559 15.6203 40.1559 15.0817V13.3239C40.0612 13.4186 39.8777 13.5073 39.6055 13.5902C39.3391 13.6671 39.0343 13.7352 38.6911 13.7944C38.3478 13.8477 38.0134 13.898 37.6879 13.9453C37.3623 13.9867 37.0901 14.0223 36.8711 14.0518C36.3562 14.117 35.8857 14.2264 35.4595 14.3803C35.0393 14.5342 34.7019 14.7562 34.4474 15.0462C34.1989 15.3303 34.0746 15.709 34.0746 16.1825C34.0746 16.8395 34.3172 17.3366 34.8026 17.674C35.2879 18.0054 35.9064 18.1712 36.658 18.1712ZM46.7874 15.3746L46.7696 12.1342H47.2313L52.6645 6.36364H55.8428L49.646 12.9332H49.2288L46.7874 15.3746ZM44.346 20V1.81818H47.0004V20H44.346ZM52.9575 20L48.0747 13.5192L49.9035 11.6637L56.2156 20H52.9575Z" fill="currentColor"/>
<path d="M65.1942 20.2486C63.8685 20.2486 62.6877 20.0207 61.652 19.565C60.6222 19.1033 59.8084 18.4701 59.2106 17.6651C58.6187 16.8543 58.3139 15.9192 58.2962 14.8597H62.1669C62.1906 15.3036 62.3356 15.6942 62.6019 16.0316C62.8742 16.363 63.2352 16.6205 63.685 16.804C64.1348 16.9875 64.6409 17.0792 65.2031 17.0792C65.7891 17.0792 66.3069 16.9756 66.7567 16.7685C67.2066 16.5613 67.5587 16.2743 67.8132 15.9073C68.0677 15.5404 68.195 15.1172 68.195 14.6378C68.195 14.1525 68.0588 13.7234 67.7866 13.3505C67.5202 12.9717 67.1355 12.6758 66.6325 12.4627C66.1353 12.2496 65.5434 12.1431 64.8569 12.1431H63.1612V9.31996H64.8569C65.4369 9.31996 65.9489 9.21934 66.3928 9.01811C66.8426 8.81688 67.1918 8.53871 67.4403 8.18359C67.6889 7.82256 67.8132 7.40234 67.8132 6.92294C67.8132 6.46721 67.7037 6.06771 67.4847 5.72443C67.2717 5.37524 66.9698 5.10298 66.5792 4.90767C66.1945 4.71236 65.7447 4.6147 65.2298 4.6147C64.7089 4.6147 64.2325 4.7094 63.8004 4.89879C63.3684 5.08227 63.0221 5.34564 62.7617 5.68892C62.5013 6.0322 62.3622 6.43466 62.3445 6.89631H58.6602C58.6779 5.84872 58.9768 4.92543 59.5568 4.12642C60.1368 3.32741 60.9181 2.70301 61.9006 2.2532C62.889 1.79747 64.0046 1.5696 65.2475 1.5696C66.5022 1.5696 67.6001 1.79747 68.5412 2.2532C69.4822 2.70892 70.2132 3.32445 70.734 4.09979C71.2608 4.8692 71.5212 5.73331 71.5153 6.69212C71.5212 7.71011 71.2045 8.55942 70.5653 9.24006C69.9321 9.92069 69.1064 10.3527 68.0884 10.5362V10.6783C69.426 10.8499 70.444 11.3145 71.1424 12.0721C71.8467 12.8237 72.1959 13.7648 72.19 14.8952C72.1959 15.931 71.897 16.8513 71.2933 17.6562C70.6955 18.4612 69.8699 19.0945 68.8164 19.5561C67.7629 20.0178 66.5555 20.2486 65.1942 20.2486ZM79.9312 20.2486C78.9961 20.2427 78.0935 20.0858 77.2235 19.7781C76.3593 19.4703 75.584 18.9702 74.8975 18.2777C74.2109 17.5852 73.6664 16.6679 73.2639 15.5256C72.8674 14.3833 72.6691 12.9806 72.6691 11.3175C72.675 9.79048 72.8496 8.42625 73.1929 7.22479C73.5421 6.0174 74.0393 4.99349 74.6844 4.15305C75.3354 3.31262 76.1137 2.67341 77.0193 2.23544C77.9248 1.79155 78.9398 1.5696 80.0644 1.5696C81.2777 1.5696 82.3489 1.80634 83.2781 2.27983C84.2074 2.7474 84.9531 3.38364 85.5154 4.18857C86.0835 4.99349 86.4268 5.89607 86.5452 6.89631H82.7544C82.6064 6.26302 82.2957 5.76586 81.8222 5.40483C81.3487 5.0438 80.7628 4.86328 80.0644 4.86328C78.8807 4.86328 77.981 5.3782 77.3655 6.40803C76.7559 7.43785 76.4452 8.83759 76.4333 10.6072H76.5576C76.8299 10.0687 77.1968 9.60997 77.6585 9.23118C78.126 8.84647 78.6557 8.5535 79.2476 8.35227C79.8454 8.14512 80.4757 8.04155 81.1386 8.04155C82.2158 8.04155 83.1746 8.29605 84.015 8.80504C84.8554 9.30812 85.5183 10.0006 86.0036 10.8825C86.489 11.7643 86.7316 12.7734 86.7316 13.9098C86.7316 15.1409 86.4446 16.2358 85.8705 17.1946C85.3023 18.1534 84.5062 18.9051 83.4823 19.4496C82.4643 19.9882 81.2806 20.2545 79.9312 20.2486ZM79.9134 17.2301C80.5053 17.2301 81.035 17.0881 81.5026 16.804C81.9701 16.5199 82.3371 16.1352 82.6034 15.6499C82.8698 15.1645 83.0029 14.62 83.0029 14.0163C83.0029 13.4126 82.8698 12.8711 82.6034 12.3917C82.343 11.9123 81.982 11.5305 81.5203 11.2464C81.0587 10.9624 80.5319 10.8203 79.9401 10.8203C79.4962 10.8203 79.0848 10.9032 78.7061 11.0689C78.3332 11.2346 78.0047 11.4654 77.7206 11.7614C77.4424 12.0573 77.2235 12.4006 77.0637 12.7912C76.9039 13.1759 76.824 13.5872 76.824 14.0252C76.824 14.6112 76.9571 15.1468 77.2235 15.6321C77.4957 16.1174 77.8627 16.5051 78.3243 16.7951C78.7919 17.0851 79.3216 17.2301 79.9134 17.2301ZM94.0977 20.2486C92.843 20.2486 91.7244 20.0178 90.7419 19.5561C89.7654 19.0945 88.99 18.4582 88.4159 17.6474C87.8418 16.8365 87.5429 15.9073 87.5193 14.8597H91.248C91.2894 15.564 91.5853 16.1352 92.1357 16.5732C92.6862 17.0111 93.3402 17.2301 94.0977 17.2301C94.7014 17.2301 95.2341 17.0969 95.6958 16.8306C96.1633 16.5584 96.5273 16.1825 96.7877 15.7031C97.0541 15.2178 97.1872 14.6615 97.1872 14.0341C97.1872 13.3949 97.0511 12.8326 96.7789 12.3473C96.5125 11.862 96.1426 11.4832 95.6691 11.2109C95.1956 10.9387 94.6541 10.7996 94.0445 10.7937C93.5118 10.7937 92.9939 10.9032 92.4909 11.1222C91.9937 11.3411 91.606 11.64 91.3279 12.0188L87.9099 11.4062L88.771 1.81818H99.8861V4.96094H91.9404L91.4699 9.51527H91.5764C91.896 9.06546 92.3784 8.69259 93.0235 8.39666C93.6686 8.10073 94.3907 7.95277 95.1897 7.95277C96.2847 7.95277 97.2612 8.21023 98.1194 8.72514C98.9776 9.24006 99.6553 9.94732 100.152 10.8469C100.65 11.7406 100.895 12.7705 100.889 13.9364C100.895 15.1616 100.611 16.2506 100.037 17.2035C99.4688 18.1504 98.6728 18.8962 97.6489 19.4407C96.6309 19.9793 95.4472 20.2486 94.0977 20.2486Z" fill="black"/>
</g>
<defs>
<clipPath id="clip0_302_132">
<rect width="103" height="26" fill="white"/>
</clipPath>
</defs>
</svg>
